# xmcd CD database file
#
# Track frame offsets:
#	150
#	32851
#	70508
#	91135
#	115344
#	149216
#	178562
#	214898
#
# Disc length: 3259 seconds
#
# Revision: 0
# Processed by: cddbd v1.5.2PL0 Copyright (c) Steve Scherf et al.
# Submitted via: CDex 1.70beta3
#
DISCID=740cb908
DTITLE=Joe Morris - Nate Wooley - Tooth and Nail 
DYEAR=2010
DGENRE=Jazz
TTITLE0=Metronorth
TTITLE1=Gigantica
TTITLE2=Steelhead
TTITLE3=Noble Reasoning
TTITLE4=Forest Grove
TTITLE5=Barberchaired
TTITLE6=Hook in Cheek
TTITLE7=A Terrific Snag
EXTD=YEAR: 2010
EXTT0=
EXTT1=
EXTT2=
EXTT3=
EXTT4=
EXTT5=
EXTT6=
EXTT7=
PLAYORDER=
